Coordinates
version=1
nRows=17
nColumns=40
inDegrees=yes

Units are S.I. units (second, meters, Newtons, ...)
Angles are in degrees.

endheader
time	pelvis_tilt	pelvis_list	pelvis_rotation	pelvis_tx	pelvis_ty	pelvis_tz	hip_flexion_r	hip_adduction_r	hip_rotation_r	knee_angle_r	knee_angle_r_beta	ankle_angle_r	subtalar_angle_r	mtp_angle_r	hip_flexion_l	hip_adduction_l	hip_rotation_l	knee_angle_l	knee_angle_l_beta	ankle_angle_l	subtalar_angle_l	mtp_angle_l	lumbar_extension	lumbar_bending	lumbar_rotation	arm_flex_r	arm_add_r	arm_rot_r	elbow_flex_r	pro_sup_r	wrist_flex_r	wrist_dev_r	arm_flex_l	arm_add_l	arm_rot_l	elbow_flex_l	pro_sup_l	wrist_flex_l	wrist_dev_l
     17.06750000	     -2.86612519	     -4.98445162	      3.32850530	      0.85558209	      0.93235505	      0.48314604	      6.76582417	      5.33742454	    -15.52385969	     12.22072278	     12.22072278	     10.46743481	     -0.93295998	     -5.55185012	     32.82708840	    -10.28530545	      0.08278378	     39.87413699	     39.87413699	     11.78010004	    -18.50886849	     17.48611415	     -8.87872048	      6.85438542	      4.70686388	     36.99536706	    -16.07984652	     -7.24063125	     63.51960487	     45.15546440	      0.00000000	      0.00000000	      0.08240066	     -5.85788801	      0.00042225	     21.34047013	     45.81713515	      0.00000000	      0.00000000
     17.07985714	     -2.86684314	     -4.88429361	      3.53307451	      0.85450838	      0.93229535	      0.48283460	      6.10068567	      5.26884040	    -15.80800323	     11.83525575	     11.83525575	     10.74397958	     -0.46679081	     -5.56352726	     32.61109467	     -9.73045083	      0.30331088	     35.79825612	     35.79825612	     11.37044026	    -18.07301527	     17.23071307	     -8.97816584	      6.78934593	      4.39256757	     38.40510378	    -15.84545208	     -7.33419941	     65.57468423	     45.09883105	      0.00000000	      0.00000000	     -1.21816897	     -5.90513587	      0.22278081	     21.00296165	     45.73835525	      0.00000000	      0.00000000
     17.09221429	     -2.97017274	     -4.87430422	      3.74945504	      0.85348229	      0.93193398	      0.48239911	      5.55520258	      5.27545368	    -16.18446006	     11.47188232	     11.47188232	     11.04988556	      0.08655288	     -5.61106048	     32.55201660	     -9.31077373	      0.44831008	     31.96399854	     31.96399854	     10.92432664	    -17.00043402	     16.72523088	     -8.89349965	      6.87724665	      4.33592295	     39.67469095	    -15.90366245	     -7.45370367	     67.47561332	     45.04864537	      0.00000000	      0.00000000	     -2.45931430	     -5.88297943	      0.41914509	     20.91266765	     45.66248042	      0.00000000	      0.00000000
     17.10457143	     -3.03514245	     -4.97895620	      3.96431711	      0.85263453	      0.93142562	      0.48180212	      4.97846243	      5.33009204	    -17.03294676	     11.18358128	     11.18358128	     11.55285655	      1.51160120	     -5.42112586	     32.31190487	     -9.03869120	      0.52524235	     28.05723228	     28.05723228	      9.05174008	    -15.82779205	     12.40670797	     -8.93772894	      7.10422299	      4.85364870	     40.02537126	    -16.71203213	     -7.83640676	     71.45479714	     44.96054582	      0.00000000	      0.00000000	     -3.85419193	     -6.00420112	      1.76907961	     22.24449872	     45.31285991	      0.00000000	      0.00000000
     17.11692857	     -3.16268593	     -5.03720941	      4.17870554	      0.85178039	      0.93094377	      0.48121823	      4.42450745	      5.44621580	    -17.21972189	     10.74451421	     10.74451421	     11.75460715	      1.75138781	     -5.40997475	     32.29855227	     -8.74381216	      0.54671340	     24.80731352	     24.80731352	      8.86912169	    -13.78565580	     12.51166062	     -8.77487405	      7.22459923	      4.71646651	     41.32876094	    -16.67828353	     -7.94466381	     72.47841437	     44.94082038	      0.00000000	      0.00000000	     -4.91713376	     -5.97119634	      2.01941383	     21.94208096	     45.24143487	      0.00000000	      0.00000000
     17.12928571	     -3.20851901	     -5.09326712	      4.39466926	      0.85115066	      0.93054510	      0.48051010	      3.70928655	      5.55942732	    -17.55131443	     10.20690871	     10.20690871	     11.98500394	      2.33437413	     -5.40187398	     32.20912019	     -8.50016832	      0.35942764	     21.94380387	     21.94380387	      8.57712870	    -11.55542399	     12.41383782	     -8.69669472	      7.36214499	      4.55503192	     42.47803600	    -16.61803269	     -8.03009209	     73.77082747	     44.91167214	      0.00000000	      0.00000000	     -6.04120982	     -5.95746253	      2.26980829	     21.87563696	     45.16499903	      0.00000000	      0.00000000
     17.14164286	     -3.20904866	     -5.26133599	      4.61483113	      0.85070958	      0.93006670	      0.47971817	      2.88198948	      5.78038829	    -18.20364935	      9.57194966	      9.57194966	     12.26816545	      3.52269426	     -5.27470471	     32.20015916	     -8.44313489	     -0.10227748	     19.66327655	     19.66327655	      8.07883503	     -9.13991288	     11.53655837	     -8.67428378	      7.64758596	      4.47896732	     43.35199240	    -16.67050230	     -8.16193845	     75.71624677	     44.87176073	      0.00000000	      0.00000000	     -7.30644767	     -6.01974832	      2.86707763	     22.54336312	     45.00909744	      0.00000000	      0.00000000
     17.15400000	     -3.32110253	     -5.27932645	      4.80261707	      0.85021384	      0.92948860	      0.47881515	      2.33525858	      5.82532036	    -18.37841084	      9.24584760	      9.24584760	     12.55390956	      3.80099779	     -5.25084986	     32.21276517	     -8.15737554	     -0.41864917	     17.66382104	     17.66382104	      7.54996602	     -7.58834434	     11.69618187	     -8.46819360	      7.70846440	      4.47562119	     44.20320722	    -16.80490267	     -8.27639824	     76.56092168	     44.85698657	      0.00000000	      0.00000000	     -8.19112903	     -5.99181877	      3.07161766	     22.53247788	     44.95095576	      0.00000000	      0.00000000
     17.16635714	     -3.29387008	     -5.38258962	      4.99067006	      0.85004339	      0.92896682	      0.47782455	      1.56170175	      5.95741568	    -18.84889886	      8.84537447	      8.84537447	     13.15953051	      4.75489950	     -4.34883936	     32.14200317	     -8.02483262	     -0.92748408	     16.21377489	     16.21377489	      6.46089081	     -6.35062110	     10.01171237	     -8.45081956	      7.87369581	      4.59299872	     44.65482685	    -17.08854995	     -8.62503797	     78.51962105	     44.89932231	      0.00000000	      0.00000000	     -9.59844538	     -6.54045096	      6.51980303	     24.11433638	     44.34159934	      0.00000000	      0.00000000
     17.17871429	     -3.32186685	     -5.40700109	      5.13196307	      0.84986629	      0.92835540	      0.47679118	      0.87721928	      6.01566357	    -19.04439901	      8.46681274	      8.46681274	     13.42116573	      5.20720930	     -4.41129241	     32.18986042	     -7.84151737	     -1.52283260	     15.41745101	     15.41745101	      6.07805539	     -5.48178627	     10.24775179	     -8.32163477	      7.93841523	      4.50675228	     45.35384528	    -17.09691089	     -8.69639330	     79.24865722	     44.88930110	      0.00000000	      0.00000000	    -10.36457584	     -6.49767014	      6.72249710	     24.00996076	     44.30794092	      0.00000000	      0.00000000
     17.19107143	     -3.35181574	     -5.49157671	      5.27558982	      0.84977163	      0.92750446	      0.47571097	      0.37234828	      6.09645561	    -19.10429611	      8.44070930	      8.44070930	     13.83406463	      5.17022358	     -4.52824481	     32.39855030	     -7.71128778	     -1.85461259	     15.35880367	     15.35880367	      5.67097041	     -5.49548998	     10.41296931	     -8.02211065	      8.05343331	      4.62292722	     45.63642244	    -17.20325754	     -8.75236307	     79.38576302	     44.88839080	      0.00000000	      0.00000000	    -10.73285570	     -6.48807800	      6.72571066	     23.90316878	     44.30157889	      0.00000000	      0.00000000
     17.20342857	     -3.47076915	     -5.48278472	      5.27157854	      0.84976156	      0.92665108	      0.47458410	     -0.15668921	      6.07675125	    -19.07153066	      8.19876534	      8.19876534	     14.10689024	      5.50293993	     -4.52557221	     32.43320367	     -7.57100092	     -2.47099376	     15.34252556	     15.34252556	      5.24566532	     -5.60871922	     10.50057986	     -7.86169006	      8.04282927	      4.57527578	     46.39473783	    -17.42078391	     -8.92273695	     79.99606909	     44.87969747	      0.00000000	      0.00000000	    -11.56616421	     -6.38531350	      6.76940748	     23.73880681	     44.28223411	      0.00000000	      0.00000000
     17.21578571	     -3.36225258	     -5.56832950	      5.34147741	      0.85013678	      0.92588539	      0.47336189	     -1.02003070	      6.17504739	    -19.43486595	      7.85126588	      7.85126588	     14.53161167	      6.39624625	     -4.30768074	     32.30812773	     -7.54847126	     -2.82824784	     15.87367676	     15.87367676	      4.74518494	     -6.11712156	     10.09569576	     -7.86561960	      8.16917900	      4.37467413	     46.55925590	    -17.17845286	     -9.04699932	     81.29581119	     44.85107115	      0.00000000	      0.00000000	    -12.28160516	     -6.38772315	      6.87379310	     24.08991506	     44.26313716	      0.00000000	      0.00000000
     17.22814286	     -3.37662529	     -5.54272955	      5.28439304	      0.85053744	      0.92485144	      0.47210470	     -1.51155475	      6.03431607	    -19.67170341	      8.03944754	      8.03944754	     15.32911663	      7.08537906	     -3.60270373	     32.10005675	     -7.41128344	     -2.99027421	     16.40518266	     16.40518266	      3.81121655	     -7.28907320	      9.03873444	     -7.73901315	      8.11157807	      4.67978804	     46.31940970	    -17.53048162	     -9.47346325	     82.46830632	     44.85480445	      0.00000000	      0.00000000	    -12.89219064	     -6.52403350	      7.22436264	     24.98099405	     44.23966079	      0.00000000	      0.00000000
     17.24050000	     -3.36441130	     -5.57573413	      5.21176830	      0.85102665	      0.92369496	      0.47088053	     -2.06468586	      6.01038798	    -19.53135950	      8.10771716	      8.10771716	     15.78029317	      7.18070895	     -3.60163500	     31.98799418	     -7.40717725	     -3.14080809	     17.46468471	     17.46468471	      3.44862634	     -8.15690066	      8.91098198	     -7.57836686	      8.14261775	      4.69494440	     46.37312897	    -17.55520381	     -9.54361732	     82.61943044	     44.85731978	      0.00000000	      0.00000000	    -13.18919674	     -6.51909082	      7.30228238	     24.91774873	     44.23175068	      0.00000000	      0.00000000
     17.25285714	     -3.38113933	     -5.56521095	      5.03999937	      0.85169227	      0.92242598	      0.46967263	     -2.58554477	      5.91492027	    -19.34938045	      8.21890784	      8.21890784	     16.29632984	      7.28895815	     -3.61356034	     31.75963974	     -7.38452204	     -3.19830581	     18.49884732	     18.49884732	      3.07814775	     -9.08043662	      8.81480013	     -7.40195151	      8.07295334	      4.74280248	     46.23649135	    -17.55805998	     -9.61303777	     82.76236920	     44.85822561	      0.00000000	      0.00000000	    -13.52103407	     -6.49306193	      7.34450673	     24.89542069	     44.22665007	      0.00000000	      0.00000000
     17.26521429	     -3.42725025	     -5.59517660	      4.84371141	      0.85242869	      0.92100760	      0.46839805	     -3.02410607	      5.83145464	    -19.16811855	      8.43668002	      8.43668002	     16.83738233	      7.38416099	     -3.54686134	     31.54812515	     -7.36866120	     -2.97999432	     19.59645777	     19.59645777	      2.69638385	    -10.17015292	      8.67099655	     -7.18860045	      8.05955496	      4.77963537	     45.97055928	    -17.57174662	     -9.72689846	     82.94658872	     44.85986475	      0.00000000	      0.00000000	    -13.76068702	     -6.49394469	      7.37244536	     24.98038456	     44.22771552	      0.00000000	      0.00000000
